<?xml version="1.0" encoding="utf-8"?>
<!-- Generator: Adobe Illustrator 16.0.3, SVG Export Plug-In . SVG Version: 6.00 Build 0)  -->
<!DOCTYPE svg PUBLIC "-//W3C//DTD SVG 1.1//EN" "http://www.w3.org/Graphics/SVG/1.1/DTD/svg11.dtd">
<svg version="1.1" id="Layer_1" xmlns="http://www.w3.org/2000/svg" xmlns:xlink="http://www.w3.org/1999/xlink" x="0px" y="0px"
	 width="146.167px" height="40px" viewBox="0 0 146.167 40" enable-background="new 0 0 146.167 40" xml:space="preserve">
<g>
	<g>
		<defs>
			<rect id="SVGID_1_" x="8.156" y="4" width="32" height="32"/>
		</defs>
		<clipPath id="SVGID_2_">
			<use xlink:href="#SVGID_1_"  overflow="visible"/>
		</clipPath>
		<g clip-path="url(#SVGID_2_)">
			<defs>
				<rect id="SVGID_3_" x="8.156" y="4" width="32" height="32"/>
			</defs>
			<clipPath id="SVGID_4_">
				<use xlink:href="#SVGID_3_"  overflow="visible"/>
			</clipPath>
			<path clip-path="url(#SVGID_4_)" fill="#FDB515" d="M39.537,20c0,8.524-6.861,15.434-15.325,15.434
				c-8.464,0-15.324-6.91-15.324-15.434s6.86-15.434,15.324-15.434C32.676,4.566,39.537,11.477,39.537,20"/>
			
				<ellipse clip-path="url(#SVGID_4_)" fill="none" stroke="#FFFFFF" stroke-width="0.75" stroke-miterlimit="10" cx="24.212" cy="20" rx="15.324" ry="15.434"/>
			<path clip-path="url(#SVGID_4_)" fill="#F15A29" d="M39.424,19.914c0,6.811-5.666,12.335-12.657,12.335
				c-6.989,0-12.656-5.524-12.656-12.335c0-6.814,5.667-12.336,12.656-12.336C33.758,7.578,39.424,13.1,39.424,19.914"/>
			
				<ellipse clip-path="url(#SVGID_4_)" fill="none" stroke="#FFFFFF" stroke-width="0.75" stroke-miterlimit="10" cx="26.768" cy="19.914" rx="12.656" ry="12.335"/>
			<path clip-path="url(#SVGID_4_)" fill="#F58773" d="M24.437,12.453c0,4.356-3.505,7.887-7.831,7.887
				c-4.324,0-7.831-3.531-7.831-7.887c0-4.355,3.507-7.886,7.831-7.886C20.932,4.566,24.437,8.098,24.437,12.453"/>
			
				<ellipse clip-path="url(#SVGID_4_)" fill="none" stroke="#FFFFFF" stroke-width="0.75" stroke-miterlimit="10" cx="16.606" cy="12.453" rx="7.831" ry="7.887"/>
			<path clip-path="url(#SVGID_4_)" fill="#F99B21" d="M39.424,23.605c0,6.532-5.308,11.829-11.856,11.829
				c-6.55,0-11.859-5.297-11.859-11.829c0-6.535,5.309-11.831,11.859-11.831C34.116,11.774,39.424,17.07,39.424,23.605"/>
			
				<ellipse clip-path="url(#SVGID_4_)" fill="none" stroke="#FFFFFF" stroke-width="0.75" stroke-miterlimit="10" cx="27.567" cy="23.605" rx="11.857" ry="11.829"/>
		</g>
		<g clip-path="url(#SVGID_2_)">
			
				<text transform="matrix(1 -0.0074 0.0074 1 11.813 22.8809)" fill="#EE2524" font-family="'MyriadPro-Regular'" font-size="7.3939">osu!mer</text>
		</g>
		<g clip-path="url(#SVGID_2_)">
			<defs>
				<rect id="SVGID_5_" x="8.156" y="4" width="32" height="32"/>
			</defs>
			<clipPath id="SVGID_6_">
				<use xlink:href="#SVGID_5_"  overflow="visible"/>
			</clipPath>
			<path clip-path="url(#SVGID_6_)" fill="none" stroke="#90191C" stroke-width="0.25" stroke-miterlimit="10" d="M13.829,19.693
				c0.769-0.006,1.078,0.761,1.083,1.368c0.006,0.806-0.456,1.394-1.077,1.398c-0.636,0.005-1.091-0.584-1.097-1.367
				C12.733,20.412,13.061,19.699,13.829,19.693z M13.841,19.205c-0.991,0.007-1.77,0.715-1.761,1.913
				c0.009,1.131,0.761,1.836,1.73,1.828c0.864-0.007,1.777-0.589,1.767-1.913C15.569,19.939,14.868,19.197,13.841,19.205z"/>
			<path clip-path="url(#SVGID_6_)" fill="none" stroke="#90191C" stroke-width="0.25" stroke-miterlimit="10" d="M16.159,22.678
				c0.252,0.146,0.615,0.24,1.007,0.236c0.85-0.006,1.335-0.453,1.33-1.082c-0.004-0.531-0.323-0.84-0.946-1.072
				c-0.468-0.173-0.683-0.306-0.685-0.601c-0.002-0.266,0.211-0.489,0.595-0.492c0.333-0.003,0.593,0.114,0.734,0.201l0.158-0.475
				c-0.199-0.116-0.519-0.217-0.881-0.215c-0.769,0.006-1.231,0.483-1.227,1.059c0.003,0.429,0.309,0.782,0.954,1.005
				c0.482,0.174,0.669,0.342,0.67,0.653c0.003,0.296-0.218,0.535-0.691,0.539c-0.325,0.002-0.666-0.129-0.859-0.253L16.159,22.678z"
				/>
			<path clip-path="url(#SVGID_6_)" fill="none" stroke="#90191C" stroke-width="0.25" stroke-miterlimit="10" d="M22.307,19.223
				l-0.65,0.005l0.016,2.198c0.001,0.117-0.021,0.235-0.056,0.332c-0.117,0.289-0.418,0.594-0.854,0.598
				c-0.591,0.004-0.802-0.452-0.807-1.133l-0.015-1.981l-0.651,0.004l0.016,2.094c0.009,1.257,0.685,1.562,1.247,1.558
				c0.635-0.006,1.009-0.385,1.178-0.674h0.014l0.042,0.584l0.577-0.004c-0.025-0.281-0.035-0.606-0.037-0.976L22.307,19.223z"/>
			<path clip-path="url(#SVGID_6_)" fill="none" stroke="#90191C" stroke-width="0.25" stroke-miterlimit="10" d="M23.724,22.873
				c0.266-0.002,0.435-0.203,0.433-0.461c-0.002-0.267-0.173-0.457-0.44-0.455c-0.251,0.002-0.434,0.194-0.432,0.461
				C23.287,22.676,23.465,22.875,23.724,22.873z M23.964,21.355l0.077-3.549l-0.709,0.005l0.13,3.548L23.964,21.355z"/>
			<path clip-path="url(#SVGID_6_)" fill="none" stroke="#90191C" stroke-width="0.25" stroke-miterlimit="10" d="M25.113,22.782
				l0.636-0.005l-0.016-2.159c0-0.11,0.013-0.222,0.049-0.318c0.102-0.327,0.395-0.654,0.801-0.657
				c0.496-0.004,0.75,0.408,0.755,0.977l0.016,2.146l0.635-0.004l-0.016-2.211c-0.001-0.119,0.02-0.237,0.05-0.326
				c0.108-0.319,0.394-0.595,0.764-0.598c0.525-0.004,0.78,0.408,0.784,1.096l0.015,2.027l0.636-0.005l-0.016-2.108
				c-0.009-1.242-0.714-1.547-1.186-1.543c-0.34,0.002-0.576,0.092-0.79,0.257c-0.147,0.112-0.286,0.268-0.396,0.469H27.82
				c-0.159-0.421-0.531-0.714-1.018-0.71c-0.592,0.004-0.923,0.325-1.119,0.666l-0.023,0.001l-0.034-0.577l-0.569,0.004
				c0.024,0.295,0.034,0.599,0.036,0.968L25.113,22.782z"/>
			<path clip-path="url(#SVGID_6_)" fill="none" stroke="#90191C" stroke-width="0.25" stroke-miterlimit="10" d="M31.634,20.597
				c0.048-0.452,0.332-1.06,0.99-1.065c0.732-0.006,0.914,0.637,0.91,1.051L31.634,20.597z M34.144,21.044
				c0.007-0.066,0.021-0.17,0.02-0.304c-0.005-0.657-0.324-1.683-1.492-1.675c-1.042,0.008-1.673,0.864-1.664,1.943
				c0.008,1.08,0.671,1.801,1.773,1.791c0.569-0.004,0.961-0.125,1.189-0.23l-0.114-0.465c-0.243,0.105-0.524,0.188-0.989,0.192
				c-0.651,0.005-1.216-0.354-1.238-1.233L34.144,21.044z"/>
			<path clip-path="url(#SVGID_6_)" fill="none" stroke="#90191C" stroke-width="0.25" stroke-miterlimit="10" d="M34.984,22.709
				l0.644-0.005l-0.015-1.907c-0.001-0.111,0.014-0.215,0.027-0.304c0.085-0.489,0.408-0.838,0.866-0.842
				c0.089,0,0.156,0.006,0.223,0.02l-0.005-0.613c-0.059-0.014-0.111-0.022-0.184-0.021c-0.437,0.003-0.827,0.31-0.986,0.792h-0.03
				l-0.026-0.703l-0.57,0.004c0.025,0.333,0.035,0.695,0.037,1.117L34.984,22.709z"/>
		</g>
	</g>
</g>
<g>
	<g>
		<linearGradient id="SVGID_7_" gradientUnits="userSpaceOnUse" x1="47.4038" y1="21.2891" x2="138.3994" y2="21.2891">
			<stop  offset="0" style="stop-color:#FF9933"/>
			<stop  offset="1" style="stop-color:#FF3333"/>
		</linearGradient>
		<path fill="url(#SVGID_7_)" d="M60.273,21.296c0,2.424-0.585,4.296-1.754,5.615c-1.169,1.32-2.725,1.979-4.668,1.979
			c-2.003,0-3.578-0.681-4.726-2.044c-1.148-1.362-1.722-3.212-1.722-5.551c0-2.407,0.591-4.276,1.773-5.609
			c1.182-1.333,2.74-1.999,4.674-1.999c1.943,0,3.499,0.664,4.668,1.992C59.688,17.009,60.273,18.88,60.273,21.296z M57.771,21.296
			c0-1.865-0.339-3.251-1.019-4.158c-0.679-0.907-1.646-1.36-2.901-1.36c-1.264,0-2.237,0.453-2.92,1.36
			c-0.684,0.907-1.025,2.293-1.025,4.158c0,1.806,0.342,3.175,1.025,4.107s1.657,1.398,2.92,1.398c1.247,0,2.211-0.457,2.895-1.373
			C57.43,24.514,57.771,23.136,57.771,21.296z"/>
		<linearGradient id="SVGID_8_" gradientUnits="userSpaceOnUse" x1="47.4038" y1="21.2891" x2="138.3994" y2="21.2891">
			<stop  offset="0" style="stop-color:#FF9933"/>
			<stop  offset="1" style="stop-color:#FF3333"/>
		</linearGradient>
		<path fill="url(#SVGID_8_)" d="M67.738,28.84c-0.963,0-1.863-0.13-2.702-0.388c-0.838-0.258-1.532-0.532-2.083-0.825v-2.721h0.129
			c0.207,0.164,0.449,0.344,0.729,0.542c0.279,0.197,0.651,0.404,1.116,0.619c0.413,0.188,0.866,0.356,1.36,0.503
			c0.494,0.146,1.008,0.219,1.541,0.219c0.387,0,0.799-0.045,1.238-0.136c0.438-0.09,0.765-0.204,0.98-0.341
			c0.301-0.198,0.518-0.408,0.651-0.632s0.2-0.56,0.2-1.006c0-0.576-0.157-1.011-0.471-1.303c-0.314-0.292-0.871-0.537-1.67-0.735
			c-0.31-0.077-0.714-0.167-1.212-0.271c-0.499-0.104-0.959-0.215-1.38-0.335c-1.101-0.318-1.9-0.811-2.398-1.477
			s-0.748-1.472-0.748-2.418c0-1.298,0.49-2.355,1.47-3.172s2.282-1.225,3.907-1.225c0.799,0,1.603,0.099,2.411,0.296
			c0.808,0.198,1.487,0.447,2.037,0.748v2.592h-0.129c-0.619-0.49-1.309-0.877-2.069-1.161s-1.528-0.425-2.302-0.425
			c-0.799,0-1.475,0.167-2.024,0.503c-0.55,0.335-0.825,0.842-0.825,1.521c0,0.602,0.163,1.051,0.49,1.348
			c0.327,0.296,0.851,0.54,1.573,0.729c0.361,0.095,0.763,0.187,1.206,0.277c0.443,0.09,0.909,0.195,1.399,0.316
			c1.065,0.266,1.867,0.709,2.405,1.329c0.537,0.618,0.806,1.461,0.806,2.526c0,0.619-0.123,1.206-0.367,1.761
			c-0.245,0.554-0.604,1.029-1.077,1.425c-0.516,0.43-1.098,0.756-1.747,0.979S68.718,28.84,67.738,28.84z"/>
		<linearGradient id="SVGID_9_" gradientUnits="userSpaceOnUse" x1="47.4038" y1="21.2891" x2="138.3994" y2="21.2891">
			<stop  offset="0" style="stop-color:#FF9933"/>
			<stop  offset="1" style="stop-color:#FF3333"/>
		</linearGradient>
		<path fill="url(#SVGID_9_)" d="M87.931,28.491h-2.424v-1.599c-0.748,0.653-1.457,1.149-2.128,1.489
			c-0.67,0.339-1.418,0.509-2.243,0.509c-0.628,0-1.219-0.103-1.773-0.31c-0.555-0.206-1.038-0.532-1.45-0.979
			c-0.413-0.447-0.733-1.01-0.961-1.689c-0.228-0.679-0.342-1.504-0.342-2.476v-9.349h2.424v8.201c0,0.765,0.028,1.398,0.084,1.901
			s0.183,0.944,0.381,1.322c0.197,0.369,0.466,0.641,0.806,0.813s0.827,0.258,1.464,0.258c0.593,0,1.225-0.168,1.896-0.503
			c0.67-0.335,1.285-0.748,1.844-1.238V14.088h2.424V28.491z"/>
		<linearGradient id="SVGID_10_" gradientUnits="userSpaceOnUse" x1="47.4038" y1="21.2891" x2="138.3994" y2="21.2891">
			<stop  offset="0" style="stop-color:#FF9933"/>
			<stop  offset="1" style="stop-color:#FF3333"/>
		</linearGradient>
		<path fill="url(#SVGID_10_)" d="M108.872,28.491v-8.33c0-0.662-0.026-1.274-0.078-1.837s-0.159-1.003-0.322-1.322
			c-0.172-0.344-0.417-0.597-0.734-0.761c-0.318-0.163-0.748-0.245-1.29-0.245c-0.498,0-1.033,0.153-1.605,0.458
			c-0.571,0.305-1.162,0.746-1.772,1.322c0.008,0.146,0.02,0.32,0.032,0.522c0.013,0.202,0.02,0.441,0.02,0.716v9.478h-2.425v-8.33
			c0-0.662-0.025-1.274-0.077-1.837s-0.159-1.003-0.322-1.322c-0.172-0.344-0.417-0.597-0.735-0.761
			c-0.318-0.163-0.748-0.245-1.289-0.245c-0.524,0-1.075,0.164-1.65,0.49c-0.576,0.327-1.135,0.744-1.677,1.251v10.754h-2.424
			V14.088h2.424v1.599c0.636-0.636,1.266-1.128,1.89-1.477c0.623-0.348,1.309-0.522,2.057-0.522c0.851,0,1.604,0.194,2.263,0.581
			c0.657,0.387,1.158,1.023,1.502,1.908c0.73-0.816,1.444-1.436,2.141-1.857c0.696-0.421,1.453-0.632,2.27-0.632
			c0.619,0,1.182,0.097,1.689,0.291c0.507,0.193,0.949,0.505,1.328,0.935c0.387,0.438,0.686,0.984,0.896,1.638
			c0.211,0.653,0.316,1.475,0.316,2.463v9.478H108.872z"/>
		<linearGradient id="SVGID_11_" gradientUnits="userSpaceOnUse" x1="47.4038" y1="21.2891" x2="138.3994" y2="21.2891">
			<stop  offset="0" style="stop-color:#FF9933"/>
			<stop  offset="1" style="stop-color:#FF3333"/>
		</linearGradient>
		<path fill="url(#SVGID_11_)" d="M122.036,28.826c-2.296,0-4.077-0.646-5.345-1.94c-1.269-1.294-1.902-3.131-1.902-5.512
			c0-2.348,0.614-4.215,1.844-5.604c1.229-1.388,2.837-2.083,4.823-2.083c0.894,0,1.685,0.129,2.372,0.387s1.29,0.662,1.806,1.212
			c0.516,0.55,0.911,1.223,1.186,2.018c0.275,0.795,0.413,1.769,0.413,2.92v1.315h-9.98c0,1.677,0.421,2.957,1.264,3.843
			s2.007,1.328,3.494,1.328c0.533,0,1.056-0.061,1.567-0.181c0.511-0.12,0.974-0.275,1.386-0.464
			c0.438-0.198,0.808-0.39,1.109-0.574c0.301-0.185,0.55-0.358,0.747-0.522h0.143v2.644c-0.284,0.112-0.637,0.252-1.058,0.419
			c-0.421,0.168-0.8,0.299-1.135,0.394c-0.473,0.129-0.9,0.228-1.283,0.297C123.104,28.792,122.62,28.826,122.036,28.826z
			 M124.873,19.684c-0.018-0.653-0.095-1.216-0.232-1.689s-0.335-0.873-0.593-1.199c-0.284-0.361-0.647-0.636-1.09-0.825
			c-0.443-0.189-0.991-0.284-1.645-0.284c-0.645,0-1.192,0.097-1.644,0.29s-0.862,0.475-1.231,0.845
			c-0.361,0.378-0.637,0.797-0.825,1.257c-0.189,0.46-0.31,0.995-0.361,1.605H124.873z"/>
		<linearGradient id="SVGID_12_" gradientUnits="userSpaceOnUse" x1="47.4038" y1="21.2891" x2="138.3994" y2="21.2891">
			<stop  offset="0" style="stop-color:#FF9933"/>
			<stop  offset="1" style="stop-color:#FF3333"/>
		</linearGradient>
		<path fill="url(#SVGID_12_)" d="M138.399,16.693h-0.129c-0.181-0.052-0.372-0.084-0.574-0.097
			c-0.202-0.013-0.445-0.019-0.729-0.019c-0.653,0-1.303,0.142-1.947,0.425s-1.255,0.705-1.831,1.264v10.226h-2.424V14.088h2.424
			v2.141c0.886-0.782,1.657-1.334,2.314-1.657c0.658-0.322,1.296-0.483,1.915-0.483c0.249,0,0.437,0.006,0.561,0.02
			c0.125,0.013,0.265,0.032,0.42,0.058V16.693z"/>
	</g>
	<g>
		<path fill="none" stroke="#FFFFFF" stroke-miterlimit="10" d="M53.851,29.391c-2.148,0-3.867-0.748-5.108-2.222
			c-1.221-1.448-1.839-3.425-1.839-5.873c0-2.521,0.639-4.52,1.899-5.94c1.276-1.438,2.974-2.167,5.048-2.167
			c2.084,0,3.781,0.728,5.043,2.162c1.247,1.417,1.878,3.417,1.878,5.946c0,2.538-0.632,4.539-1.88,5.947
			C57.631,28.668,55.935,29.391,53.851,29.391z M53.851,16.277c-1.107,0-1.932,0.38-2.521,1.161
			c-0.614,0.814-0.925,2.112-0.925,3.857c0,1.688,0.313,2.971,0.929,3.812c0.589,0.804,1.412,1.194,2.517,1.194
			c1.09,0,1.906-0.384,2.494-1.172c0.614-0.822,0.926-2.112,0.926-3.834c0-1.747-0.309-3.044-0.919-3.858
			C55.768,16.657,54.95,16.277,53.851,16.277z"/>
		<path fill="none" stroke="#FFFFFF" stroke-miterlimit="10" d="M67.738,29.34c-1.006,0-1.964-0.138-2.849-0.41
			c-0.868-0.267-1.598-0.557-2.17-0.861l-0.265-0.142v-3.521h0.803l0.137,0.108c0.2,0.159,0.436,0.334,0.707,0.525
			c0.254,0.181,0.604,0.373,1.036,0.573c0.39,0.179,0.825,0.339,1.292,0.478c0.446,0.132,0.917,0.198,1.399,0.198
			c0.353,0,0.735-0.042,1.136-0.125c0.468-0.097,0.701-0.202,0.813-0.273c0.229-0.151,0.396-0.31,0.49-0.466
			c0.049-0.081,0.13-0.287,0.13-0.75c0-0.436-0.102-0.741-0.312-0.937c-0.171-0.16-0.562-0.396-1.45-0.616
			c-0.305-0.076-0.703-0.164-1.193-0.267c-0.512-0.105-0.984-0.22-1.416-0.344c-1.204-0.348-2.099-0.905-2.662-1.657
			c-0.563-0.751-0.848-1.666-0.848-2.718c0-1.447,0.555-2.643,1.65-3.556c1.068-0.89,2.49-1.341,4.228-1.341
			c0.834,0,1.685,0.104,2.53,0.311c0.848,0.208,1.574,0.476,2.158,0.795l0.26,0.142v3.388h-0.803l-0.137-0.108
			c-0.575-0.456-1.226-0.82-1.934-1.084c-0.701-0.261-1.416-0.394-2.127-0.394c-0.703,0-1.296,0.145-1.764,0.43
			c-0.399,0.243-0.585,0.591-0.585,1.095c0,0.458,0.106,0.778,0.326,0.978c0.265,0.241,0.724,0.448,1.363,0.615
			c0.353,0.093,0.746,0.183,1.179,0.271c0.449,0.091,0.921,0.198,1.419,0.32c1.163,0.291,2.059,0.791,2.663,1.486
			c0.616,0.709,0.928,1.669,0.928,2.854c0,0.686-0.138,1.346-0.41,1.963c-0.276,0.623-0.684,1.163-1.214,1.606
			c-0.56,0.467-1.201,0.825-1.905,1.068C69.645,29.218,68.769,29.34,67.738,29.34z"/>
		<path fill="none" stroke="#FFFFFF" stroke-miterlimit="10" d="M81.136,29.391c-0.687,0-1.342-0.115-1.948-0.341
			c-0.626-0.233-1.18-0.606-1.644-1.109c-0.459-0.497-0.818-1.127-1.067-1.869c-0.243-0.729-0.367-1.614-0.367-2.635v-9.849h3.424
			v8.701c0,0.74,0.027,1.361,0.081,1.847c0.049,0.438,0.158,0.824,0.326,1.145c0.148,0.276,0.341,0.474,0.589,0.599
			c0.184,0.093,0.548,0.204,1.238,0.204c0.511,0,1.074-0.151,1.672-0.45c0.562-0.281,1.088-0.624,1.567-1.021V13.588h3.424v15.403
			h-3.424v-1.049c-0.482,0.36-0.951,0.657-1.402,0.886C82.866,29.201,82.036,29.391,81.136,29.391z"/>
		<path fill="none" stroke="#FFFFFF" stroke-miterlimit="10" d="M108.372,28.991v-8.83c0-0.64-0.025-1.243-0.076-1.792
			c-0.046-0.497-0.136-0.88-0.27-1.14c-0.126-0.252-0.295-0.429-0.519-0.544c-0.245-0.125-0.603-0.189-1.061-0.189
			c-0.412,0-0.873,0.134-1.37,0.399c-0.477,0.254-0.979,0.619-1.494,1.086l0.018,0.285c0.014,0.211,0.021,0.46,0.021,0.747v9.978
			h-3.425v-8.83c0-0.647-0.025-1.25-0.075-1.792c-0.046-0.497-0.136-0.88-0.27-1.14c-0.126-0.253-0.295-0.429-0.519-0.544
			c-0.246-0.126-0.603-0.19-1.061-0.19c-0.435,0-0.907,0.143-1.403,0.425c-0.483,0.274-0.962,0.622-1.424,1.037v11.034h-3.424
			V13.588h3.424v0.972c0.384-0.312,0.767-0.575,1.146-0.786c0.695-0.389,1.469-0.586,2.3-0.586c0.936,0,1.782,0.218,2.516,0.649
			c0.564,0.332,1.029,0.822,1.389,1.462c0.588-0.591,1.172-1.063,1.742-1.408c0.772-0.467,1.623-0.704,2.528-0.704
			c0.677,0,1.306,0.109,1.868,0.323c0.58,0.222,1.093,0.582,1.524,1.071c0.432,0.489,0.767,1.1,0.996,1.815
			c0.227,0.699,0.341,1.58,0.341,2.616v9.978H108.372z"/>
		<path fill="none" stroke="#FFFFFF" stroke-miterlimit="10" d="M122.036,29.326c-2.425,0-4.343-0.703-5.702-2.091
			c-1.356-1.384-2.045-3.356-2.045-5.861c0-2.462,0.663-4.459,1.97-5.935c1.322-1.494,3.071-2.251,5.197-2.251
			c0.949,0,1.806,0.141,2.548,0.419c0.757,0.284,1.429,0.734,1.994,1.338c0.563,0.6,0.998,1.339,1.294,2.197
			c0.292,0.844,0.44,1.881,0.44,3.083v1.815h-9.967c0.075,1.294,0.448,2.301,1.112,2.998c0.751,0.789,1.775,1.173,3.132,1.173
			c0.491,0,0.979-0.057,1.453-0.167c0.476-0.112,0.91-0.258,1.292-0.433c0.417-0.188,0.771-0.372,1.057-0.546
			c0.276-0.17,0.506-0.329,0.688-0.48l0.139-0.115h0.823v3.483l-1.373,0.544c-0.438,0.175-0.834,0.311-1.184,0.41
			c-0.492,0.134-0.935,0.235-1.33,0.308C123.164,29.289,122.646,29.326,122.036,29.326z M124.345,19.184
			c-0.034-0.395-0.096-0.747-0.185-1.049c-0.119-0.409-0.289-0.755-0.505-1.029c-0.234-0.297-0.526-0.518-0.894-0.675
			c-0.379-0.162-0.866-0.244-1.448-0.244c-0.573,0-1.061,0.084-1.446,0.25c-0.392,0.167-0.753,0.416-1.075,0.739
			c-0.309,0.324-0.553,0.694-0.716,1.093c-0.112,0.271-0.198,0.578-0.257,0.916H124.345z"/>
		<path fill="none" stroke="#FFFFFF" stroke-miterlimit="10" d="M130.266,28.991V13.588h3.424v1.573
			c0.584-0.457,1.117-0.804,1.594-1.038c0.725-0.355,1.443-0.535,2.136-0.535c0.272,0,0.478,0.008,0.613,0.022
			c0.132,0.013,0.282,0.034,0.449,0.062l0.418,0.069v3.451H138.2l-0.067-0.02c-0.145-0.042-0.303-0.068-0.469-0.079
			c-0.192-0.012-0.425-0.018-0.696-0.018c-0.581,0-1.169,0.129-1.746,0.383c-0.531,0.234-1.046,0.577-1.532,1.022v10.51H130.266z"/>
	</g>
</g>
<g>
</g>
<g>
</g>
<g>
</g>
<g>
</g>
<g>
</g>
<g>
</g>
<g>
</g>
<g>
</g>
<g>
</g>
<g>
</g>
<g>
</g>
<g>
</g>
<g>
</g>
<g>
</g>
<g>
</g>
</svg>
