<?xml version="1.0" encoding="utf-8"?>
<!-- Generator: Adobe Illustrator 16.0.3, SVG Export Plug-In . SVG Version: 6.00 Build 0)  -->
<!DOCTYPE svg PUBLIC "-//W3C//DTD SVG 1.1//EN" "http://www.w3.org/Graphics/SVG/1.1/DTD/svg11.dtd">
<svg version="1.1" id="Layer_1" xmlns="http://www.w3.org/2000/svg" xmlns:xlink="http://www.w3.org/1999/xlink" x="0px" y="0px"
	 width="129.5px" height="40px" viewBox="0 0 129.5 40" enable-background="new 0 0 129.5 40" xml:space="preserve">
<g>
	<g>
		<defs>
			<rect id="SVGID_1_" x="8.156" y="4" width="32" height="32"/>
		</defs>
		<clipPath id="SVGID_2_">
			<use xlink:href="#SVGID_1_"  overflow="visible"/>
		</clipPath>
		<g clip-path="url(#SVGID_2_)">
			<defs>
				<rect id="SVGID_3_" x="8.156" y="4" width="32" height="32"/>
			</defs>
			<clipPath id="SVGID_4_">
				<use xlink:href="#SVGID_3_"  overflow="visible"/>
			</clipPath>
			<path clip-path="url(#SVGID_4_)" fill="#FDB515" d="M39.537,20c0,8.524-6.861,15.434-15.325,15.434
				c-8.464,0-15.324-6.91-15.324-15.434s6.86-15.434,15.324-15.434C32.676,4.566,39.537,11.477,39.537,20"/>
			
				<ellipse clip-path="url(#SVGID_4_)" fill="none" stroke="#FFFFFF" stroke-width="0.75" stroke-miterlimit="10" cx="24.212" cy="20" rx="15.324" ry="15.434"/>
			<path clip-path="url(#SVGID_4_)" fill="#F15A29" d="M39.424,19.914c0,6.811-5.666,12.335-12.657,12.335
				c-6.989,0-12.656-5.524-12.656-12.335c0-6.814,5.667-12.336,12.656-12.336C33.758,7.578,39.424,13.1,39.424,19.914"/>
			
				<ellipse clip-path="url(#SVGID_4_)" fill="none" stroke="#FFFFFF" stroke-width="0.75" stroke-miterlimit="10" cx="26.768" cy="19.914" rx="12.656" ry="12.335"/>
			<path clip-path="url(#SVGID_4_)" fill="#F58773" d="M24.437,12.453c0,4.356-3.505,7.887-7.831,7.887
				c-4.324,0-7.831-3.531-7.831-7.887c0-4.355,3.507-7.886,7.831-7.886C20.932,4.566,24.437,8.098,24.437,12.453"/>
			
				<ellipse clip-path="url(#SVGID_4_)" fill="none" stroke="#FFFFFF" stroke-width="0.75" stroke-miterlimit="10" cx="16.606" cy="12.453" rx="7.831" ry="7.887"/>
			<path clip-path="url(#SVGID_4_)" fill="#F99B21" d="M39.424,23.605c0,6.532-5.308,11.829-11.856,11.829
				c-6.55,0-11.859-5.297-11.859-11.829c0-6.535,5.309-11.831,11.859-11.831C34.116,11.774,39.424,17.07,39.424,23.605"/>
			
				<ellipse clip-path="url(#SVGID_4_)" fill="none" stroke="#FFFFFF" stroke-width="0.75" stroke-miterlimit="10" cx="27.567" cy="23.605" rx="11.857" ry="11.829"/>
		</g>
		<g clip-path="url(#SVGID_2_)">
			
				<text transform="matrix(1 -0.0074 0.0074 1 11.813 22.8809)" fill="#EE2524" font-family="'MyriadPro-Regular'" font-size="7.3939">osu!mer</text>
		</g>
		<g clip-path="url(#SVGID_2_)">
			<defs>
				<rect id="SVGID_5_" x="8.156" y="4" width="32" height="32"/>
			</defs>
			<clipPath id="SVGID_6_">
				<use xlink:href="#SVGID_5_"  overflow="visible"/>
			</clipPath>
			<path clip-path="url(#SVGID_6_)" fill="none" stroke="#90191C" stroke-width="0.25" stroke-miterlimit="10" d="M13.829,19.693
				c0.769-0.006,1.078,0.761,1.083,1.368c0.006,0.806-0.456,1.394-1.077,1.398c-0.636,0.005-1.091-0.584-1.097-1.367
				C12.733,20.412,13.061,19.699,13.829,19.693z M13.841,19.205c-0.991,0.007-1.77,0.715-1.761,1.913
				c0.009,1.131,0.761,1.836,1.73,1.828c0.864-0.007,1.777-0.589,1.767-1.913C15.569,19.939,14.868,19.197,13.841,19.205z"/>
			<path clip-path="url(#SVGID_6_)" fill="none" stroke="#90191C" stroke-width="0.25" stroke-miterlimit="10" d="M16.159,22.678
				c0.252,0.146,0.615,0.24,1.007,0.236c0.85-0.006,1.335-0.453,1.33-1.082c-0.004-0.531-0.323-0.84-0.946-1.072
				c-0.468-0.173-0.683-0.306-0.685-0.601c-0.002-0.266,0.211-0.489,0.595-0.492c0.333-0.003,0.593,0.114,0.734,0.201l0.158-0.475
				c-0.199-0.116-0.519-0.217-0.881-0.215c-0.769,0.006-1.231,0.483-1.227,1.059c0.003,0.429,0.309,0.782,0.954,1.005
				c0.482,0.174,0.669,0.342,0.67,0.653c0.003,0.296-0.218,0.535-0.691,0.539c-0.325,0.002-0.666-0.129-0.859-0.253L16.159,22.678z"
				/>
			<path clip-path="url(#SVGID_6_)" fill="none" stroke="#90191C" stroke-width="0.25" stroke-miterlimit="10" d="M22.307,19.223
				l-0.65,0.005l0.016,2.198c0.001,0.117-0.021,0.235-0.056,0.332c-0.117,0.289-0.418,0.594-0.854,0.598
				c-0.591,0.004-0.802-0.452-0.807-1.133l-0.015-1.981l-0.651,0.004l0.016,2.094c0.009,1.257,0.685,1.562,1.247,1.558
				c0.635-0.006,1.009-0.385,1.178-0.674h0.014l0.042,0.584l0.577-0.004c-0.025-0.281-0.035-0.606-0.037-0.976L22.307,19.223z"/>
			<path clip-path="url(#SVGID_6_)" fill="none" stroke="#90191C" stroke-width="0.25" stroke-miterlimit="10" d="M23.724,22.873
				c0.266-0.002,0.435-0.203,0.433-0.461c-0.002-0.267-0.173-0.457-0.44-0.455c-0.251,0.002-0.434,0.194-0.432,0.461
				C23.287,22.676,23.465,22.875,23.724,22.873z M23.964,21.355l0.077-3.549l-0.709,0.005l0.13,3.548L23.964,21.355z"/>
			<path clip-path="url(#SVGID_6_)" fill="none" stroke="#90191C" stroke-width="0.25" stroke-miterlimit="10" d="M25.113,22.782
				l0.636-0.005l-0.016-2.159c0-0.11,0.013-0.222,0.049-0.318c0.102-0.327,0.395-0.654,0.801-0.657
				c0.496-0.004,0.75,0.408,0.755,0.977l0.016,2.146l0.635-0.004l-0.016-2.211c-0.001-0.119,0.02-0.237,0.05-0.326
				c0.108-0.319,0.394-0.595,0.764-0.598c0.525-0.004,0.78,0.408,0.784,1.096l0.015,2.027l0.636-0.005l-0.016-2.108
				c-0.009-1.242-0.714-1.547-1.186-1.543c-0.34,0.002-0.576,0.092-0.79,0.257c-0.147,0.112-0.286,0.268-0.396,0.469H27.82
				c-0.159-0.421-0.531-0.714-1.018-0.71c-0.592,0.004-0.923,0.325-1.119,0.666l-0.023,0.001l-0.034-0.577l-0.569,0.004
				c0.024,0.295,0.034,0.599,0.036,0.968L25.113,22.782z"/>
			<path clip-path="url(#SVGID_6_)" fill="none" stroke="#90191C" stroke-width="0.25" stroke-miterlimit="10" d="M31.634,20.597
				c0.048-0.452,0.332-1.06,0.99-1.065c0.732-0.006,0.914,0.637,0.91,1.051L31.634,20.597z M34.144,21.044
				c0.007-0.066,0.021-0.17,0.02-0.304c-0.005-0.657-0.324-1.683-1.492-1.675c-1.042,0.008-1.673,0.864-1.664,1.943
				c0.008,1.08,0.671,1.801,1.773,1.791c0.569-0.004,0.961-0.125,1.189-0.23l-0.114-0.465c-0.243,0.105-0.524,0.188-0.989,0.192
				c-0.651,0.005-1.216-0.354-1.238-1.233L34.144,21.044z"/>
			<path clip-path="url(#SVGID_6_)" fill="none" stroke="#90191C" stroke-width="0.25" stroke-miterlimit="10" d="M34.984,22.709
				l0.644-0.005l-0.015-1.907c-0.001-0.111,0.014-0.215,0.027-0.304c0.085-0.489,0.408-0.838,0.866-0.842
				c0.089,0,0.156,0.006,0.223,0.02l-0.005-0.613c-0.059-0.014-0.111-0.022-0.184-0.021c-0.437,0.003-0.827,0.31-0.986,0.792h-0.03
				l-0.026-0.703l-0.57,0.004c0.025,0.333,0.035,0.695,0.037,1.117L34.984,22.709z"/>
		</g>
	</g>
</g>
<g>
	<g>
		<linearGradient id="SVGID_7_" gradientUnits="userSpaceOnUse" x1="48.1436" y1="21.4697" x2="122.7324" y2="21.4697">
			<stop  offset="0" style="stop-color:#FF9933"/>
			<stop  offset="1" style="stop-color:#FF3333"/>
		</linearGradient>
		<path fill="url(#SVGID_7_)" d="M59.359,21.476c0,2.112-0.51,3.744-1.528,4.894c-1.019,1.15-2.375,1.726-4.068,1.726
			c-1.746,0-3.119-0.594-4.119-1.781c-1-1.188-1.5-2.801-1.5-4.838c0-2.098,0.515-3.727,1.545-4.889
			c1.03-1.161,2.388-1.742,4.074-1.742c1.693,0,3.049,0.579,4.068,1.736C58.85,17.739,59.359,19.37,59.359,21.476z M57.179,21.476
			c0-1.625-0.296-2.834-0.888-3.625c-0.592-0.79-1.435-1.186-2.529-1.186c-1.102,0-1.95,0.396-2.545,1.186
			c-0.596,0.791-0.894,1.999-0.894,3.625c0,1.573,0.298,2.766,0.894,3.579c0.596,0.813,1.444,1.219,2.545,1.219
			c1.086,0,1.927-0.398,2.523-1.196S57.179,23.078,57.179,21.476z"/>
		<linearGradient id="SVGID_8_" gradientUnits="userSpaceOnUse" x1="48.1436" y1="21.4697" x2="122.7324" y2="21.4697">
			<stop  offset="0" style="stop-color:#FF9933"/>
			<stop  offset="1" style="stop-color:#FF3333"/>
		</linearGradient>
		<path fill="url(#SVGID_8_)" d="M64.922,28.05c-0.839,0-1.624-0.112-2.354-0.338c-0.73-0.225-1.335-0.464-1.815-0.719v-2.371h0.112
			c0.18,0.143,0.392,0.3,0.635,0.472c0.243,0.173,0.567,0.353,0.972,0.539c0.359,0.165,0.754,0.312,1.186,0.438
			c0.431,0.128,0.878,0.191,1.343,0.191c0.337,0,0.697-0.039,1.079-0.118c0.382-0.078,0.667-0.178,0.854-0.298
			c0.262-0.172,0.451-0.355,0.567-0.551c0.116-0.194,0.174-0.486,0.174-0.876c0-0.502-0.137-0.881-0.41-1.136
			c-0.273-0.254-0.759-0.468-1.456-0.641c-0.27-0.066-0.622-0.146-1.056-0.236c-0.435-0.089-0.835-0.187-1.203-0.291
			c-0.959-0.277-1.656-0.706-2.09-1.287s-0.652-1.283-0.652-2.107c0-1.131,0.427-2.053,1.281-2.765
			c0.854-0.711,1.989-1.067,3.405-1.067c0.697,0,1.397,0.086,2.102,0.258c0.704,0.172,1.296,0.39,1.775,0.652v2.259H69.26
			c-0.539-0.427-1.141-0.764-1.804-1.011c-0.663-0.248-1.332-0.371-2.006-0.371c-0.697,0-1.285,0.146-1.765,0.438
			c-0.479,0.292-0.719,0.734-0.719,1.326c0,0.524,0.143,0.916,0.427,1.174c0.285,0.258,0.742,0.47,1.371,0.635
			c0.314,0.083,0.665,0.163,1.051,0.242c0.386,0.079,0.792,0.17,1.219,0.275c0.929,0.232,1.627,0.618,2.096,1.157
			c0.468,0.539,0.702,1.273,0.702,2.202c0,0.54-0.107,1.051-0.32,1.534s-0.526,0.897-0.938,1.242
			c-0.449,0.375-0.957,0.659-1.522,0.854C66.486,27.952,65.776,28.05,64.922,28.05z"/>
		<linearGradient id="SVGID_9_" gradientUnits="userSpaceOnUse" x1="48.1436" y1="21.4697" x2="122.7324" y2="21.4697">
			<stop  offset="0" style="stop-color:#FF9933"/>
			<stop  offset="1" style="stop-color:#FF3333"/>
		</linearGradient>
		<path fill="url(#SVGID_9_)" d="M81.578,27.746h-2.113v-1.394c-0.652,0.569-1.27,1.002-1.854,1.298
			c-0.586,0.296-1.236,0.444-1.957,0.444c-0.547,0-1.061-0.09-1.544-0.27c-0.483-0.181-0.905-0.465-1.264-0.854
			c-0.36-0.39-0.639-0.88-0.837-1.473c-0.199-0.592-0.298-1.311-0.298-2.157v-8.147h2.113v7.147c0,0.667,0.024,1.219,0.073,1.657
			c0.048,0.438,0.159,0.822,0.332,1.152c0.172,0.322,0.407,0.558,0.702,0.708c0.297,0.149,0.721,0.225,1.275,0.225
			c0.518,0,1.068-0.146,1.652-0.438s1.121-0.651,1.607-1.079v-9.372h2.113V27.746z"/>
		<linearGradient id="SVGID_10_" gradientUnits="userSpaceOnUse" x1="48.1436" y1="21.4697" x2="122.7324" y2="21.4697">
			<stop  offset="0" style="stop-color:#FF9933"/>
			<stop  offset="1" style="stop-color:#FF3333"/>
		</linearGradient>
		<path fill="url(#SVGID_10_)" d="M98.885,27.746v-7.259c0-0.577-0.022-1.111-0.067-1.602s-0.139-0.875-0.28-1.152
			c-0.15-0.3-0.364-0.521-0.641-0.663c-0.277-0.143-0.652-0.214-1.124-0.214c-0.435,0-0.901,0.133-1.399,0.399
			c-0.498,0.266-1.014,0.65-1.545,1.152c0.007,0.127,0.017,0.279,0.027,0.455c0.012,0.176,0.018,0.384,0.018,0.624v8.26H91.76
			v-7.259c0-0.577-0.022-1.111-0.067-1.602s-0.139-0.875-0.281-1.152c-0.149-0.3-0.363-0.521-0.64-0.663
			c-0.277-0.143-0.652-0.214-1.124-0.214c-0.457,0-0.937,0.143-1.438,0.427s-0.989,0.648-1.461,1.09v9.372h-2.113V15.193h2.113
			v1.394c0.554-0.554,1.103-0.983,1.646-1.287c0.543-0.304,1.141-0.456,1.792-0.456c0.742,0,1.399,0.169,1.973,0.506
			c0.573,0.337,1.009,0.892,1.309,1.664c0.637-0.712,1.259-1.251,1.866-1.619c0.606-0.367,1.266-0.551,1.978-0.551
			c0.54,0,1.03,0.084,1.473,0.253c0.441,0.169,0.827,0.44,1.157,0.815c0.337,0.382,0.598,0.858,0.781,1.427s0.275,1.285,0.275,2.146
			v8.26H98.885z"/>
		<linearGradient id="SVGID_11_" gradientUnits="userSpaceOnUse" x1="48.1436" y1="21.4697" x2="122.7324" y2="21.4697">
			<stop  offset="0" style="stop-color:#FF9933"/>
			<stop  offset="1" style="stop-color:#FF3333"/>
		</linearGradient>
		<path fill="url(#SVGID_11_)" d="M109.415,28.038c-2.001,0-3.554-0.563-4.659-1.691c-1.104-1.127-1.657-2.729-1.657-4.804
			c0-2.045,0.535-3.673,1.607-4.883c1.071-1.21,2.472-1.815,4.203-1.815c0.778,0,1.468,0.113,2.067,0.337s1.124,0.577,1.573,1.056
			c0.45,0.48,0.794,1.066,1.034,1.759c0.239,0.693,0.359,1.542,0.359,2.545v1.146h-8.698c0,1.461,0.367,2.577,1.102,3.35
			c0.734,0.771,1.749,1.157,3.045,1.157c0.465,0,0.92-0.053,1.366-0.157c0.445-0.105,0.849-0.24,1.208-0.405
			c0.382-0.172,0.704-0.339,0.967-0.5c0.262-0.161,0.479-0.313,0.651-0.455h0.124v2.304c-0.248,0.098-0.555,0.22-0.922,0.365
			c-0.367,0.146-0.697,0.261-0.989,0.343c-0.412,0.113-0.785,0.199-1.118,0.259S109.924,28.038,109.415,28.038z M111.887,20.071
			c-0.015-0.569-0.082-1.06-0.202-1.472s-0.292-0.76-0.517-1.045c-0.247-0.314-0.564-0.554-0.95-0.719
			c-0.386-0.165-0.863-0.247-1.433-0.247c-0.562,0-1.039,0.084-1.433,0.253s-0.751,0.414-1.073,0.736
			c-0.314,0.33-0.555,0.695-0.72,1.096c-0.165,0.401-0.27,0.868-0.314,1.399H111.887z"/>
		<linearGradient id="SVGID_12_" gradientUnits="userSpaceOnUse" x1="48.1436" y1="21.4697" x2="122.7324" y2="21.4697">
			<stop  offset="0" style="stop-color:#FF9933"/>
			<stop  offset="1" style="stop-color:#FF3333"/>
		</linearGradient>
		<path fill="url(#SVGID_12_)" d="M122.732,17.463h-0.112c-0.157-0.045-0.324-0.073-0.5-0.084c-0.177-0.011-0.388-0.017-0.636-0.017
			c-0.569,0-1.135,0.124-1.696,0.371c-0.563,0.247-1.094,0.614-1.596,1.101v8.912h-2.113V15.193h2.113v1.866
			c0.771-0.682,1.443-1.164,2.017-1.444s1.13-0.421,1.669-0.421c0.218,0,0.381,0.005,0.489,0.017c0.108,0.011,0.23,0.028,0.365,0.05
			V17.463z"/>
	</g>
	<g>
		<path fill="none" stroke="#FFFFFF" stroke-width="0.75" stroke-miterlimit="10" d="M53.763,28.845
			c-1.969,0-3.548-0.689-4.692-2.048c-1.113-1.321-1.677-3.111-1.677-5.321c0-2.276,0.583-4.089,1.734-5.386
			c1.174-1.324,2.733-1.995,4.635-1.995c1.91,0,3.468,0.67,4.631,1.991c1.138,1.294,1.715,3.107,1.715,5.39
			c0,2.291-0.578,4.105-1.717,5.391C57.229,28.179,55.672,28.845,53.763,28.845z M53.763,17.416c-0.86,0-1.497,0.29-1.947,0.887
			c-0.492,0.653-0.742,1.721-0.742,3.173c0,1.402,0.252,2.458,0.749,3.136c0.456,0.622,1.073,0.912,1.94,0.912
			c0.855,0,1.466-0.284,1.922-0.895c0.494-0.662,0.745-1.723,0.745-3.153c0-1.453-0.249-2.521-0.738-3.175
			C55.239,17.697,54.625,17.416,53.763,17.416z"/>
		<path fill="none" stroke="#FFFFFF" stroke-width="0.75" stroke-miterlimit="10" d="M64.922,28.8c-0.912,0-1.778-0.125-2.576-0.371
			c-0.773-0.238-1.428-0.498-1.946-0.773l-0.398-0.211v-3.572h1.123l0.205,0.162c0.171,0.135,0.371,0.284,0.602,0.446
			c0.206,0.146,0.493,0.305,0.854,0.471c0.326,0.15,0.691,0.285,1.083,0.4c0.36,0.107,0.74,0.161,1.131,0.161
			c0.286,0,0.598-0.034,0.927-0.103c0.394-0.081,0.552-0.163,0.601-0.195c0.199-0.13,0.289-0.236,0.328-0.303
			c0.003-0.006,0.069-0.119,0.069-0.492c0-0.283-0.058-0.481-0.171-0.587c-0.08-0.074-0.352-0.27-1.125-0.462
			c-0.261-0.064-0.604-0.142-1.027-0.229c-0.453-0.093-0.872-0.194-1.256-0.304c-1.118-0.323-1.953-0.848-2.486-1.559
			c-0.532-0.711-0.801-1.571-0.801-2.557c0-1.359,0.522-2.483,1.551-3.341c0.989-0.824,2.296-1.241,3.886-1.241
			c0.754,0,1.521,0.094,2.28,0.28c0.764,0.187,1.422,0.43,1.957,0.722l0.39,0.213v3.454h-1.124l-0.205-0.162
			c-0.474-0.376-1.013-0.678-1.6-0.896c-0.576-0.215-1.163-0.324-1.744-0.324c-0.554,0-1.017,0.111-1.374,0.329
			c-0.256,0.156-0.36,0.354-0.36,0.686c0,0.301,0.061,0.51,0.182,0.619c0.108,0.099,0.391,0.29,1.057,0.464
			c0.303,0.08,0.639,0.157,1.01,0.232c0.396,0.081,0.812,0.174,1.249,0.282c1.079,0.27,1.914,0.739,2.483,1.394
			c0.588,0.678,0.886,1.584,0.886,2.694c0,0.642-0.129,1.26-0.384,1.837c-0.259,0.587-0.644,1.097-1.143,1.515
			c-0.517,0.431-1.108,0.764-1.759,0.988C66.653,28.688,65.854,28.8,64.922,28.8z"/>
		<path fill="none" stroke="#FFFFFF" stroke-width="0.75" stroke-miterlimit="10" d="M75.654,28.845
			c-0.633,0-1.24-0.106-1.806-0.316c-0.595-0.223-1.117-0.575-1.554-1.049c-0.431-0.467-0.767-1.054-0.998-1.743
			c-0.223-0.665-0.336-1.472-0.336-2.396v-8.897h3.613v7.897c0,0.636,0.023,1.165,0.069,1.574c0.038,0.343,0.122,0.642,0.251,0.888
			c0.095,0.179,0.219,0.307,0.377,0.388c0.104,0.052,0.368,0.143,0.935,0.143c0.397,0,0.84-0.121,1.317-0.359
			c0.426-0.213,0.826-0.468,1.192-0.759v-9.771h3.613v14.053h-3.613v-0.623c-0.261,0.171-0.516,0.32-0.765,0.446
			C77.26,28.668,76.487,28.845,75.654,28.845z"/>
		<path fill="none" stroke="#FFFFFF" stroke-width="0.75" stroke-miterlimit="10" d="M98.135,28.496v-8.009
			c0-0.552-0.021-1.067-0.064-1.533c-0.045-0.489-0.134-0.748-0.201-0.879c-0.081-0.163-0.181-0.268-0.315-0.337
			c-0.116-0.06-0.346-0.131-0.781-0.131c-0.308,0-0.66,0.104-1.047,0.311c-0.359,0.192-0.737,0.462-1.128,0.804l0.007,0.097
			c0.012,0.186,0.019,0.41,0.019,0.669v9.01H91.01v-8.009c0-0.552-0.021-1.067-0.064-1.533c-0.045-0.489-0.134-0.747-0.201-0.877
			c-0.082-0.165-0.182-0.27-0.315-0.339c-0.116-0.06-0.346-0.131-0.781-0.131c-0.323,0-0.683,0.111-1.068,0.33
			c-0.366,0.208-0.729,0.467-1.081,0.771v9.789h-3.613V14.443h3.613v0.533c0.178-0.122,0.354-0.232,0.531-0.331
			c0.652-0.365,1.379-0.55,2.157-0.55c0.873,0,1.665,0.205,2.353,0.609c0.435,0.255,0.806,0.606,1.111,1.049
			c0.436-0.407,0.869-0.741,1.296-0.999c0.723-0.438,1.519-0.659,2.365-0.659c0.628,0,1.213,0.102,1.739,0.302
			c0.556,0.212,1.044,0.555,1.453,1.02c0.404,0.459,0.719,1.029,0.933,1.693c0.207,0.641,0.312,1.44,0.312,2.376v9.01H98.135z"/>
		<path fill="none" stroke="#FFFFFF" stroke-width="0.75" stroke-miterlimit="10" d="M109.415,28.788
			c-2.201,0-3.948-0.645-5.194-1.916c-1.242-1.268-1.872-3.061-1.872-5.329c0-2.225,0.604-4.035,1.796-5.38
			c1.215-1.372,2.818-2.068,4.765-2.068c0.864,0,1.648,0.129,2.33,0.385c0.705,0.264,1.33,0.683,1.857,1.245
			c0.52,0.554,0.922,1.236,1.196,2.027c0.266,0.771,0.4,1.709,0.4,2.791v1.896h-8.658c0.1,0.891,0.386,1.589,0.855,2.083
			c0.592,0.621,1.41,0.924,2.501,0.924c0.403,0,0.806-0.046,1.195-0.138c0.396-0.094,0.755-0.214,1.065-0.356
			c0.354-0.159,0.651-0.313,0.888-0.458c0.228-0.14,0.416-0.27,0.566-0.394l0.208-0.172h1.144v3.564l-1.396,0.552
			c-0.394,0.157-0.749,0.279-1.063,0.367c-0.441,0.121-0.836,0.212-1.189,0.275C110.434,28.754,109.965,28.788,109.415,28.788z
			 M111.074,19.321c-0.028-0.187-0.064-0.357-0.109-0.512c-0.093-0.318-0.223-0.584-0.386-0.792
			c-0.17-0.216-0.385-0.377-0.656-0.494c-0.29-0.124-0.673-0.187-1.138-0.187c-0.456,0-0.839,0.065-1.138,0.192
			c-0.307,0.131-0.581,0.32-0.838,0.577c-0.236,0.248-0.428,0.539-0.557,0.851c-0.047,0.113-0.087,0.235-0.123,0.364H111.074z"/>
		<path fill="none" stroke="#FFFFFF" stroke-width="0.75" stroke-miterlimit="10" d="M115.329,28.496V14.443h3.613v1.06
			c0.331-0.231,0.643-0.417,0.937-0.562c0.675-0.331,1.348-0.498,1.999-0.498c0.254,0,0.443,0.008,0.57,0.021
			c0.118,0.012,0.256,0.031,0.407,0.056l0.627,0.104v3.588h-0.968l-0.101-0.029c-0.104-0.03-0.219-0.049-0.342-0.057
			c-0.163-0.01-0.358-0.016-0.588-0.016c-0.462,0-0.931,0.104-1.394,0.307c-0.396,0.174-0.78,0.423-1.148,0.744v9.333H115.329z"/>
	</g>
</g>
<g>
</g>
<g>
</g>
<g>
</g>
<g>
</g>
<g>
</g>
<g>
</g>
<g>
</g>
<g>
</g>
<g>
</g>
<g>
</g>
<g>
</g>
<g>
</g>
<g>
</g>
<g>
</g>
<g>
</g>
</svg>
